<?xml version="1.0" standalone="no"?>
<!DOCTYPE svg PUBLIC "-//W3C//DTD SVG 20010904//EN"
 "http://www.w3.org/TR/2001/REC-SVG-20010904/DTD/svg10.dtd">
<svg version="1.0" xmlns="http://www.w3.org/2000/svg"
 width="750.000000pt" height="960.000000pt" viewBox="0 0 750.000000 960.000000"
 preserveAspectRatio="xMidYMid meet">

<g transform="translate(0.000000,960.000000) scale(0.100000,-0.100000)"
fill="#000000" stroke="none">
<path d="M0 4800 l0 -4800 3750 0 3750 0 0 4800 0 4800 -3750 0 -3750 0 0
-4800z m4105 4080 c712 -35 1417 -166 1985 -367 156 -55 209 -79 160 -70 -14
3 -137 27 -275 55 -571 116 -1031 183 -1575 229 -291 24 -1018 25 -1280 0
-644 -61 -1121 -197 -1388 -397 -156 -116 -250 -234 -367 -460 l-70 -135 -46
-3 -46 -3 -138 220 -139 220 -112 -217 -112 -217 -92 -3 c-72 -2 -91 0 -87 10
3 7 88 175 189 373 l184 360 45 3 45 3 163 -171 163 -170 31 47 c146 231 601
479 1059 578 487 105 1085 145 1703 115z m-215 -416 c0 -22 -321 -626 -349
-658 -20 -21 -58 -50 -86 -62 -47 -22 -62 -24 -238 -24 l-187 0 35 70 35 70
120 0 c117 0 120 1 149 28 18 16 86 136 171 305 l142 277 104 0 c57 0 104 -2
104 -6z m-1545 -219 c34 -33 32 -56 -17 -157 l-41 -88 -249 0 -248 0 -27 -54
c-43 -89 -50 -87 279 -84 l279 3 102 200 102 200 98 3 c55 1 97 -1 95 -5 -1
-4 -47 -95 -101 -201 -54 -107 -96 -197 -92 -200 3 -3 18 1 33 10 19 12 56 73
125 207 l99 191 94 0 c52 0 94 -3 94 -7 0 -3 -45 -94 -101 -200 -55 -107 -98
-198 -94 -201 3 -3 18 1 33 10 20 11 54 68 125 207 l98 191 94 0 c52 0 95 -3
95 -6 0 -3 -37 -78 -82 -167 -72 -143 -90 -170 -154 -234 -51 -52 -92 -82
-140 -105 l-69 -33 -622 -3 c-614 -3 -623 -2 -643 18 -37 37 -27 78 61 252 87
172 129 225 202 259 38 17 69 19 295 19 l253 0 24 -25z m2173 5 c32 -30 28
-74 -18 -168 l-39 -82 -251 0 -251 0 -24 -52 c-41 -89 -43 -88 220 -88 124 0
225 -2 225 -5 0 -2 -14 -34 -32 -70 l-32 -65 -302 0 c-290 0 -302 1 -328 21
-41 33 -34 65 55 243 86 171 131 230 203 265 37 18 63 20 297 21 243 0 256 -1
277 -20z m793 1 c41 -33 31 -81 -50 -234 -39 -74 -71 -140 -71 -146 0 -6 17
-11 40 -11 l40 0 70 140 c79 158 122 213 195 246 48 23 59 24 303 24 239 0
253 -1 272 -20 36 -36 26 -78 -55 -240 l-75 -150 270 0 c261 0 271 1 291 21
12 12 17 25 12 29 -4 5 -84 10 -176 12 -164 3 -169 4 -188 27 -27 32 -24 56
15 136 36 76 103 146 161 171 27 11 97 14 335 14 165 0 300 -3 300 -7 0 -5
-15 -35 -33 -68 l-32 -60 -219 -3 c-187 -2 -223 -5 -238 -19 -41 -37 -26 -42
157 -45 151 -3 177 -5 192 -21 58 -58 -43 -248 -162 -303 l-50 -24 -457 0
c-252 0 -458 2 -458 5 0 3 41 88 92 189 112 224 113 216 -38 216 -92 0 -106
-2 -129 -22 -14 -13 -68 -104 -119 -203 l-93 -180 -455 -3 c-426 -2 -457 -1
-478 16 -33 27 -29 79 13 159 l35 68 276 54 c265 51 276 54 276 76 0 13 -7 26
-16 29 -9 3 -114 6 -235 6 l-219 0 35 70 35 70 304 0 c284 0 305 -1 327 -19z
m-4581 -831 l65 -104 3 107 3 108 32 -3 32 -3 3 -162 2 -163 -39 0 -40 0 -63
105 -63 105 -3 -105 -3 -105 -34 0 -35 0 0 158 c0 87 3 162 7 166 4 4 21 6 38
4 26 -3 38 -16 95 -108z m1000 -29 c0 -133 -1 -141 -24 -168 -21 -25 -31 -28
-81 -28 -50 0 -60 3 -81 28 -15 18 -24 41 -24 63 0 32 2 34 35 34 31 0 35 -3
35 -25 0 -29 28 -47 53 -34 15 9 17 27 17 139 l0 130 35 0 35 0 0 -139z m2208
102 l3 -33 -85 0 -86 0 0 -30 0 -30 75 0 75 0 0 -30 0 -30 -75 0 -75 0 0 -40
0 -40 85 0 85 0 0 -30 0 -30 -120 0 -120 0 0 165 0 166 118 -3 117 -3 3 -32z
m273 -1 c39 -44 40 -99 1 -143 -23 -26 -36 -31 -90 -36 l-62 -6 0 -53 0 -54
-40 0 -40 0 0 158 c0 87 3 162 8 166 4 5 49 6 101 4 91 -4 94 -5 122 -36z
m243 -16 c-15 -24 -15 -26 0 -26 12 0 16 -9 16 -35 0 -33 -2 -35 -35 -35 l-35
0 5 53 c4 41 11 57 32 76 23 20 29 22 31 8 2 -9 -4 -27 -14 -41z m213 -55 l62
-105 3 105 3 104 33 3 32 3 0 -166 0 -166 -37 3 c-36 3 -41 7 -98 102 l-60 99
-3 -101 -3 -102 -34 0 -35 0 0 166 0 165 37 -3 c35 -3 40 -7 100 -107z m1123
-30 c0 -133 -1 -141 -24 -168 -21 -25 -31 -28 -81 -28 -50 0 -60 3 -81 28 -15
18 -24 41 -24 63 0 32 2 34 35 34 31 0 35 -3 35 -25 0 -29 28 -47 53 -34 15 9
17 27 17 139 l0 130 35 0 35 0 0 -139z m1140 84 c0 -42 -5 -60 -20 -75 -23
-23 -50 -26 -50 -6 0 8 7 16 15 20 8 3 15 12 15 20 0 7 -7 16 -15 20 -15 5
-21 57 -8 69 3 4 19 7 35 7 27 0 28 -1 28 -55z m-3850 -115 l0 -160 -35 0 -35
0 0 100 0 100 -40 0 c-38 0 -40 2 -40 30 0 25 4 30 25 30 25 0 65 31 65 50 0
6 14 10 30 10 l30 0 0 -160z m410 115 c0 -31 3 -35 25 -35 20 0 25 -5 25 -25
0 -20 -5 -25 -25 -25 -26 0 -26 -1 -23 -67 3 -62 5 -68 26 -71 16 -3 22 -10
22 -28 0 -22 -4 -24 -43 -24 -24 0 -48 5 -55 12 -7 7 -12 44 -12 95 0 76 -2
83 -20 83 -15 0 -20 7 -20 25 0 19 5 25 21 25 16 0 20 6 19 28 -3 41 -2 42 30
42 28 0 30 -3 30 -35z m-2401 -51 c25 -18 51 -71 51 -104 0 -19 -6 -20 -85
-20 -47 0 -85 -4 -85 -8 0 -40 65 -58 99 -28 20 18 61 22 61 5 0 -37 -56 -79
-105 -79 -34 0 -80 24 -99 52 -10 14 -16 44 -16 76 0 48 4 58 34 88 28 28 41
34 78 34 24 0 54 -7 67 -16z m146 -41 c28 -100 30 -102 44 -37 21 97 19 95 54
92 32 -3 32 -2 58 -102 l12 -48 21 73 c20 71 22 74 54 77 17 2 32 -1 32 -6 0
-5 -16 -59 -35 -120 l-36 -112 -34 0 c-36 0 -41 9 -61 108 -9 42 -15 35 -34
-41 -15 -61 -16 -62 -51 -65 l-35 -3 -36 113 c-19 62 -33 116 -31 121 2 4 17
7 33 7 27 0 31 -4 45 -57z m728 33 c25 -23 51 -91 41 -108 -3 -4 -41 -8 -85
-8 -60 0 -79 -3 -79 -14 0 -36 66 -51 99 -22 20 18 47 21 56 6 10 -17 -26 -59
-61 -70 -65 -22 -120 3 -153 67 -25 49 0 132 48 158 42 23 104 19 134 -9z
m252 12 c30 -14 34 -26 37 -141 l3 -88 -45 2 c-25 0 -63 -2 -85 -6 -33 -6 -45
-3 -67 15 -52 40 -28 114 40 125 76 12 82 15 82 35 0 28 -58 31 -73 4 -4 -8
-21 -14 -37 -14 -39 0 -41 30 -4 59 30 24 106 29 149 9z m145 -5 c0 -15 1 -15
18 0 25 23 87 22 111 -2 21 -21 35 -99 29 -171 -3 -43 -5 -45 -35 -48 l-33 -3
0 80 c0 80 -12 111 -43 111 -34 -1 -42 -20 -46 -105 l-3 -85 -34 0 -34 0 0
113 c0 63 3 117 7 120 3 4 19 7 35 7 19 0 28 -5 28 -17z m376 -8 c14 -14 24
-31 21 -38 -5 -18 -49 -21 -61 -4 -15 19 -48 28 -65 18 -12 -8 -12 -12 -2 -25
8 -9 19 -16 25 -16 35 0 88 -24 103 -46 15 -23 15 -28 0 -59 -19 -39 -70 -60
-125 -52 -67 11 -115 87 -54 87 16 0 32 -8 40 -20 14 -22 51 -27 70 -8 20 20
14 27 -44 44 -92 27 -118 71 -69 119 20 21 34 25 80 25 46 0 60 -4 81 -25z
m610 0 c14 -14 24 -31 21 -38 -5 -18 -49 -21 -61 -4 -15 19 -48 28 -65 18 -22
-14 2 -38 47 -46 72 -13 102 -48 82 -99 -13 -35 -71 -60 -123 -53 -43 6 -87
41 -87 69 0 26 51 24 68 -2 12 -20 37 -25 66 -14 32 12 15 34 -40 50 -70 20
-98 46 -89 82 10 44 40 62 102 62 44 0 58 -4 79 -25z m1679 9 c13 -8 30 -33
39 -55 27 -68 26 -69 -69 -69 -66 0 -85 -3 -85 -14 0 -36 66 -51 99 -22 20 18
47 21 56 6 10 -17 -26 -59 -61 -70 -65 -22 -120 3 -153 67 -25 49 0 132 48
158 35 19 96 19 126 -1z m151 -54 c10 -38 20 -70 24 -70 3 0 12 30 20 68 14
64 16 67 47 70 29 3 33 0 42 -35 6 -21 14 -55 17 -75 7 -44 19 -42 28 4 20
100 24 108 62 108 25 0 35 -4 31 -12 -2 -7 -19 -61 -37 -120 l-33 -108 -34 0
c-18 0 -36 6 -38 13 -2 6 -12 39 -21 72 l-17 60 -9 -35 c-30 -118 -26 -110
-63 -110 l-34 0 -36 113 c-19 62 -35 116 -35 120 0 4 15 7 34 7 33 0 34 -1 52
-70z m839 54 c13 -8 30 -33 39 -55 27 -68 26 -69 -69 -69 -66 0 -85 -3 -85
-14 0 -36 66 -51 99 -22 20 18 47 21 56 6 10 -17 -26 -59 -61 -70 -65 -22
-120 3 -153 67 -25 49 0 132 48 158 35 19 96 19 126 -1z m270 0 c17 -13 21
-30 25 -120 l5 -105 -45 2 c-25 0 -63 -2 -85 -6 -33 -6 -45 -3 -67 15 -52 40
-28 114 40 125 76 12 82 15 82 35 0 28 -58 31 -73 4 -4 -8 -21 -14 -37 -14
-39 0 -41 30 -4 59 33 26 128 29 159 5z m135 -1 c0 -15 1 -15 18 0 26 24 87
22 112 -3 17 -17 20 -33 20 -110 0 -49 1 -93 3 -97 1 -5 -13 -9 -30 -11 l-33
-3 0 80 c0 80 -12 111 -43 111 -34 -1 -42 -20 -46 -105 l-3 -85 -34 0 -34 0 0
113 c0 63 3 117 7 120 3 4 19 7 35 7 19 0 28 -5 28 -17z m376 -8 c14 -14 24
-31 21 -38 -5 -18 -49 -21 -61 -4 -15 19 -48 28 -65 18 -23 -15 3 -38 50 -46
55 -9 82 -34 81 -74 -1 -41 -14 -57 -59 -72 -66 -21 -153 14 -153 63 0 26 51
24 68 -2 14 -22 51 -27 70 -8 20 20 14 27 -44 44 -92 27 -118 71 -69 119 20
21 34 25 80 25 46 0 60 -4 81 -25z m-5736 -560 l0 -65 45 0 45 0 0 -40 0 -40
-45 0 -45 0 0 -65 0 -65 -45 0 -45 0 0 170 0 170 45 0 45 0 0 -65z m640 -260
l0 -325 -45 0 -45 0 0 160 c0 153 -1 160 -20 160 -19 0 -20 -7 -20 -145 l0
-145 -45 0 -45 0 0 305 0 305 45 0 45 0 0 -120 c0 -113 1 -120 20 -120 19 0
20 7 20 125 l0 125 45 0 45 0 0 -325z m740 0 l0 -325 -50 0 -50 0 0 325 0 325
50 0 50 0 0 -325z m590 135 l0 -190 -50 0 -50 0 0 70 0 70 -80 0 -80 0 0 35 0
35 80 0 c64 0 80 3 80 15 0 12 -16 15 -80 15 l-80 0 0 40 0 40 80 0 80 0 0 30
c0 29 1 30 50 30 l50 0 0 -190z m720 70 l0 -120 45 0 45 0 0 -40 0 -40 -45 0
-45 0 0 -165 0 -165 -45 0 -45 0 0 325 0 325 45 0 45 0 0 -120z m630 -115 l0
-235 -50 0 -50 0 0 235 0 235 50 0 50 0 0 -235z m600 -90 l0 -325 -50 0 -50 0
0 325 0 325 50 0 50 0 0 -325z m740 0 l0 -325 -45 0 -45 0 0 325 0 325 45 0
45 0 0 -325z m610 85 l0 -240 -45 0 -45 0 0 240 0 240 45 0 45 0 0 -240z
m-130 5 l0 -225 -45 0 -45 0 0 105 c0 97 -1 105 -20 105 -16 0 -19 -8 -22 -62
l-3 -63 -132 -3 -133 -3 0 161 0 160 50 0 50 0 0 -46 c0 -45 0 -45 33 -42 30
3 32 6 35 46 l3 42 50 0 49 0 0 -55 c0 -48 2 -55 20 -55 18 0 20 7 20 80 l0
80 45 0 45 0 0 -225z m-5540 165 l0 -40 59 0 60 0 3 38 c3 37 3 37 51 40 l47
3 0 -145 0 -146 -155 0 -155 0 0 145 0 145 45 0 45 0 0 -40z m4080 5 l0 -35
-95 0 -95 0 0 35 0 35 95 0 95 0 0 -35z m-2120 -106 l0 -131 48 6 c173 20 172
20 172 -7 0 -14 3 -32 6 -40 6 -17 -26 -21 -218 -33 l-108 -6 0 171 0 171 50
0 50 0 0 -131z m2839 101 c16 -11 40 -41 53 -68 19 -39 23 -63 23 -142 0 -83
-3 -101 -25 -139 -34 -60 -69 -83 -132 -89 -44 -3 -59 0 -88 20 -54 37 -83 98
-88 189 -7 116 31 208 99 243 43 21 118 15 158 -14z m-1977 -67 c7 -114 34
-178 100 -238 l50 -45 -22 -35 c-12 -19 -27 -35 -34 -35 -20 0 -88 62 -117
108 -24 39 -29 42 -35 26 -14 -37 -69 -107 -104 -130 l-34 -24 -28 27 c-15 15
-28 31 -28 36 0 5 20 27 44 49 70 60 98 129 104 249 l5 99 47 0 47 0 5 -87z
m651 60 c74 -44 101 -147 57 -219 -41 -66 -167 -95 -246 -58 -132 63 -117 249
24 295 40 13 128 3 165 -18z m2755 -15 l3 -38 -173 -2 -173 -3 -3 -27 -3 -28
165 0 166 0 0 -40 0 -40 -165 0 -165 0 0 -30 0 -30 180 0 180 0 0 -40 0 -40
-225 0 -225 0 0 180 0 180 218 -2 217 -3 3 -37z m-4648 -5 c0 -49 -29 -152
-59 -211 -39 -76 -89 -132 -168 -188 -61 -44 -65 -46 -78 -28 -7 11 -20 28
-28 39 -14 18 -11 22 44 58 91 59 160 154 183 250 l6 27 -105 0 -105 0 0 40 0
40 155 0 155 0 0 -27z m-800 -183 l0 -200 -135 0 -135 0 0 200 0 200 135 0
135 0 0 -200z m3400 115 l0 -35 -195 0 -195 0 0 35 0 35 195 0 195 0 0 -35z
m-100 -70 c40 -21 64 -53 64 -89 0 -46 -26 -81 -74 -102 -22 -10 -40 -24 -40
-32 0 -12 15 -14 80 -10 l80 5 0 -37 0 -37 -52 -7 c-29 -3 -122 -9 -205 -13
l-153 -6 0 41 0 42 80 0 c71 0 80 2 80 18 0 13 -13 24 -40 35 -93 36 -101 143
-15 190 50 27 143 28 195 2z m-3680 -215 l0 -90 -165 0 c-140 0 -165 -2 -165
-15 0 -13 26 -15 170 -15 l170 0 0 -40 0 -40 -220 0 -220 0 0 90 0 90 170 0
c144 0 170 2 170 15 0 13 -26 15 -170 15 l-170 0 0 40 0 40 215 0 215 0 0 -90z
m1970 -75 l0 -115 -220 0 -220 0 0 115 0 115 220 0 220 0 0 -115z m1000 35 l0
-70 180 0 180 0 0 -40 0 -40 -227 2 -228 3 -3 94 c-1 52 -1 100 2 108 3 8 22
13 51 13 l45 0 0 -70z m1948 -2 l3 -68 185 0 185 0 -3 -37 -3 -38 -232 -3
-233 -2 0 110 0 111 48 -3 47 -3 3 -67z m982 -43 l0 -35 -295 0 -295 0 0 35 0
35 295 0 295 0 0 -35z m-4406 -830 c-5 -12 -1 -14 17 -11 13 3 26 5 29 5 3 1
-1 5 -8 10 -9 5 -3 8 17 7 31 -1 41 -11 19 -18 -7 -3 -5 -7 6 -11 13 -5 19 -1
23 13 6 23 11 24 48 10 16 -6 24 -6 20 0 -9 15 2999 14 3027 -1 17 -9 23 -9
26 0 2 7 11 4 22 -9 11 -12 21 -17 24 -11 4 6 20 9 37 8 24 -2 29 -6 25 -20
-4 -15 -2 -16 10 -6 10 8 14 8 14 0 0 -6 3 -10 8 -9 22 5 62 -16 62 -33 0 -10
4 -19 10 -19 5 0 12 -11 16 -25 3 -14 10 -22 15 -19 6 3 7 14 4 25 -4 11 -2
19 4 19 6 0 11 -14 11 -31 0 -23 4 -30 15 -25 8 3 20 -1 27 -8 7 -7 20 -11 28
-9 13 4 13 3 1 -5 -9 -7 -11 -16 -6 -28 5 -11 7 -26 6 -34 -1 -8 12 13 29 48
17 34 56 88 87 120 l55 57 -47 -54 c-25 -30 -57 -73 -70 -95 -30 -52 -82 -229
-95 -326 -28 -213 -56 -453 -65 -550 -3 -36 -10 -97 -16 -136 -11 -71 -11 -72
-58 -96 -25 -14 -108 -57 -184 -97 -144 -76 -158 -90 -172 -162 -4 -24 -1 -49
9 -73 9 -21 28 -99 42 -174 23 -116 26 -154 21 -247 -3 -60 -11 -123 -18 -140
-12 -29 -16 -50 -37 -195 -9 -59 -33 -137 -91 -290 -14 -38 -21 -82 -22 -140
-1 -47 -5 -119 -8 -160 -6 -70 -7 -73 -15 -37 -5 21 -5 74 -1 118 l7 80 -24
-15 c-51 -33 -194 -39 -445 -16 -153 13 -161 14 -168 22 -3 3 -21 3 -40 1 -25
-2 -35 0 -35 11 0 7 -6 19 -14 25 -10 8 -12 33 -8 106 2 52 1 95 -4 95 -5 -1
-20 -7 -34 -15 -68 -39 -126 2 -212 147 -88 148 -108 188 -109 222 -1 29 -2
28 -10 -10 -13 -55 15 -130 77 -210 64 -81 92 -140 78 -162 -13 -20 -57 -30
-98 -22 -37 7 -77 75 -100 170 -21 85 -63 258 -82 340 -8 36 -19 146 -24 245
-6 99 -12 193 -15 208 -6 35 14 100 71 233 24 56 44 109 44 118 0 21 -16 20
-30 -1 -13 -21 -13 -22 22 102 16 60 22 108 22 190 2 378 -48 648 -148 797
-35 52 -139 164 -168 179 -38 21 -166 29 -222 15 -205 -54 -318 -202 -371
-486 -9 -47 -23 -121 -31 -165 -19 -97 -77 -282 -110 -348 -13 -27 -24 -56
-24 -64 0 -28 -40 -71 -73 -79 -31 -7 -31 -8 -7 -14 22 -5 25 -12 28 -52 3
-42 -41 -266 -84 -433 -19 -73 -50 -218 -57 -263 -3 -19 -14 -43 -24 -55 -10
-11 -12 -17 -4 -12 10 5 12 3 8 -11 -3 -11 -8 -34 -12 -51 -4 -18 -11 -33 -16
-33 -5 0 -9 -10 -9 -21 0 -44 -24 -148 -32 -143 -5 4 -4 -2 2 -13 10 -15 8
-53 -9 -178 -39 -289 -48 -349 -65 -404 -9 -30 -16 -75 -16 -101 0 -25 -7 -71
-15 -102 -8 -31 -16 -67 -19 -80 -2 -12 -9 -43 -15 -68 -6 -25 -11 -64 -11
-88 0 -40 -2 -43 -22 -36 -39 12 -92 14 -81 3 6 -6 19 -12 29 -13 12 -2 19
-12 21 -29 1 -20 -2 -25 -15 -20 -9 3 -5 -5 11 -18 33 -30 34 -53 6 -161 -11
-44 -17 -88 -14 -97 12 -30 5 -248 -9 -283 -8 -18 -17 -43 -21 -56 l-7 -23 54
27 c40 21 72 28 133 32 44 3 83 10 87 16 6 8 8 8 8 0 0 -6 18 -14 41 -18 177
-28 329 -233 329 -442 l0 -74 -66 0 c-58 0 -65 -2 -60 -17 3 -10 8 -35 11 -55
7 -36 9 -37 54 -40 54 -4 55 -11 15 -95 -24 -51 -25 -53 -9 -111 8 -33 15 -63
15 -66 0 -3 -45 -6 -100 -6 -56 0 -124 -7 -157 -15 -73 -19 -173 -19 -246 0
-32 8 -94 15 -137 15 -44 0 -80 4 -80 9 0 4 5 22 11 40 11 31 12 32 32 14 12
-10 3 5 -19 32 -22 28 -48 61 -57 75 -18 27 -23 20 -7 -10 6 -11 6 -29 1 -47
-5 -15 -14 -47 -20 -69 l-11 -42 -123 -8 c-232 -15 -300 2 -347 86 -23 42 -25
58 -31 220 -5 158 -6 164 -8 65 -2 -60 -5 -126 -7 -145 -5 -48 -13 -159 -13
-192 -1 -28 -1 -28 -76 -28 l-75 0 -2 78 -2 77 -5 -80 -6 -80 -65 -5 c-36 -3
-94 -2 -130 2 -36 4 -148 7 -249 7 -177 1 -183 2 -178 21 3 10 0 21 -7 24 -7
3 -6 8 4 15 9 6 10 11 3 11 -8 0 -11 27 -9 93 2 94 16 143 46 157 8 4 29 15
47 24 17 9 61 25 97 36 l66 21 0 169 0 170 -75 0 -75 0 0 75 0 75 75 0 74 0 3
133 3 132 95 0 95 0 3 -132 3 -133 89 0 90 0 0 -75 0 -75 -90 0 -90 0 2 -281
c3 -324 -1 -309 101 -309 56 0 58 1 51 23 -24 76 33 263 76 249 13 -4 12 -2
-1 14 -9 10 -24 34 -33 52 -16 31 -16 32 6 41 13 6 55 23 93 40 l70 30 3 70 3
71 -69 0 c-38 0 -71 2 -73 4 -2 2 -3 36 -1 75 l4 71 69 0 68 0 3 133 3 132
104 3 104 3 -5 -136 -5 -135 89 0 88 0 0 -75 0 -75 -88 0 -88 0 4 -272 c4
-265 9 -308 35 -308 8 0 7 4 -3 10 -32 20 -8 171 39 245 21 32 32 40 54 40 16
-1 31 3 33 7 3 4 25 8 49 8 42 0 44 -1 48 -33 3 -29 4 -28 5 9 1 22 11 75 21
116 17 66 18 91 11 199 -7 96 -6 128 5 148 45 88 57 154 65 361 5 114 13 206
18 208 6 2 8 12 5 22 -3 11 2 27 11 35 9 9 16 12 16 7 0 -6 9 -8 20 -5 11 3
20 10 20 15 0 5 -4 7 -9 3 -5 -3 -12 -1 -16 5 -4 6 -10 8 -14 6 -4 -3 -12 -2
-18 2 -12 8 -2 222 18 412 16 144 16 148 55 300 42 160 71 304 83 401 10 76
34 115 75 121 14 2 0 11 -44 27 -36 13 -66 25 -67 26 -1 0 8 43 21 95 13 53
24 131 25 177 1 45 10 127 20 182 10 55 14 98 10 95 -5 -3 -9 -14 -9 -24 0
-10 -4 -21 -9 -24 -12 -8 -73 -163 -81 -206 l-7 -35 -12 43 c-7 25 -11 91 -10
155 1 62 -2 129 -6 150 -6 33 -5 37 14 37 22 0 20 21 -6 51 -8 10 -15 52 -18
112 -4 63 -14 123 -31 174 -14 43 -30 116 -35 163 -14 115 -17 319 -4 324 6 3
2 5 -7 5 -12 1 -17 9 -16 24 0 12 -3 35 -7 50 -6 21 -4 27 6 25 8 -2 17 -10
21 -18 16 -37 6 44 -12 91 -10 29 -17 55 -15 59 3 4 -4 15 -15 25 -19 17 -90
136 -90 149 0 4 12 -1 28 -10 24 -14 25 -14 8 0 -11 9 -16 16 -12 16 5 0 3 7
-4 15 -9 11 -10 15 -1 15 8 0 7 5 -3 15 -8 9 -12 23 -9 32 4 11 3 14 -5 9 -16
-9 -15 7 0 22 17 17 28 15 28 -4 0 -8 5 -12 11 -9 6 4 8 13 5 21 -3 8 1 14 9
14 9 0 12 -6 9 -15z m3421 -35 c3 -5 2 -10 -4 -10 -5 0 -13 5 -16 10 -3 6 -2
10 4 10 5 0 13 -4 16 -10z m681 -102 c49 -45 74 -85 67 -106 -4 -10 -10 -9
-25 5 -15 13 -36 18 -77 18 -60 -1 -154 -31 -148 -48 4 -14 78 -13 105 2 11 6
33 11 47 11 38 0 122 -38 138 -64 28 -43 49 -126 44 -174 -13 -124 -27 -203
-41 -229 -38 -74 -149 -139 -245 -145 -55 -3 -55 -3 -84 41 l-30 44 28 21 c16
11 38 22 49 23 12 2 27 9 34 17 11 10 5 12 -33 10 -33 -2 -45 1 -45 12 0 22
62 33 111 20 15 -4 29 -3 33 2 11 19 -27 37 -75 35 -40 -1 -49 2 -49 16 0 9 5
22 11 28 8 8 8 13 0 17 -6 4 -11 0 -11 -8 0 -9 -5 -16 -11 -16 -6 0 -9 10 -7
23 1 12 -6 39 -15 60 -16 32 -17 45 -7 92 8 41 8 60 -1 77 -19 37 -51 68 -70
68 -27 0 -33 18 -19 61 14 40 66 90 123 114 17 8 60 14 95 15 60 0 64 -2 108
-42z m-539 -10 c-3 -8 -6 -5 -6 6 -1 11 2 17 5 13 3 -3 4 -12 1 -19z m-3835
-260 c31 -56 29 -68 -10 -68 -39 0 -102 -19 -102 -31 0 -6 27 -7 75 -3 75 7
82 4 70 -28 -4 -10 -22 -13 -65 -11 -58 3 -60 2 -76 -28 -17 -35 -18 -34 14
-44 22 -6 23 -5 12 17 -11 23 -11 23 10 -2 l22 -25 23 28 c13 15 26 23 29 18
3 -5 -1 -14 -9 -21 -23 -19 -18 -33 10 -26 21 5 25 2 30 -28 13 -65 -35 -239
-84 -311 -39 -58 -84 -85 -141 -85 -53 0 -75 17 -89 68 -9 29 -7 31 20 37 16
4 38 4 49 0 13 -4 29 1 46 14 15 12 22 21 17 21 -5 0 -14 -5 -20 -11 -7 -7
-19 -8 -30 -4 -10 5 -23 7 -29 6 -7 -1 -15 6 -18 15 -6 15 1 16 64 11 38 -3
70 -3 70 1 0 8 -54 32 -109 50 -28 9 -39 8 -62 -5 -20 -12 -27 -23 -24 -34 10
-31 -11 -29 -42 4 -35 38 -49 73 -58 144 -4 29 -11 55 -16 59 -5 3 -9 19 -9
36 0 26 2 29 15 18 8 -7 15 -8 15 -4 0 5 21 8 48 6 38 -3 45 -1 35 9 -13 13 0
39 19 39 6 0 5 -6 -2 -14 -9 -12 -8 -15 9 -13 30 2 26 33 -6 54 -34 22 -47 35
-50 50 -2 7 4 10 12 7 8 -4 12 -10 9 -15 -3 -5 4 -9 15 -9 11 0 30 -10 42 -22
21 -23 21 -23 10 -1 -6 12 -8 28 -5 36 7 20 -27 43 -87 58 -27 7 -49 18 -49
24 0 27 23 75 33 68 6 -4 8 0 4 10 -4 11 -2 14 9 10 7 -3 14 -1 14 5 0 5 8 13
18 16 9 4 33 15 52 26 19 10 49 19 66 20 16 0 39 6 49 14 17 12 24 8 74 -46
31 -32 68 -82 83 -110z m47 72 c11 -24 11 -24 -3 -6 -9 11 -16 24 -16 30 0 12
5 7 19 -24z m-749 -14 c0 -2 -7 -7 -16 -10 -8 -3 -12 -2 -9 4 6 10 25 14 25 6z
m1017 -28 c-3 -8 -6 -5 -6 6 -1 11 2 17 5 13 3 -3 4 -12 1 -19z m-1007 -8 c0
-5 -7 -7 -15 -4 -8 4 -15 8 -15 10 0 2 7 4 15 4 8 0 15 -4 15 -10z m-24 -25
c-4 -13 -2 -13 14 -5 23 12 40 13 21 1 -8 -5 -16 -17 -17 -27 -3 -18 20 -47
30 -37 10 10 7 25 -4 18 -5 -3 -10 1 -10 9 0 10 6 13 15 10 10 -4 15 -20 15
-46 0 -27 4 -38 13 -35 6 2 12 16 12 30 -1 15 2 27 6 27 25 0 8 -206 -26 -320
-1 -3 -5 -18 -10 -35 -4 -16 -12 -36 -18 -42 -5 -7 -7 -13 -3 -13 4 0 0 -12
-7 -27 -18 -35 -31 -153 -17 -153 6 0 10 10 10 22 0 12 2 19 5 16 4 -3 3 -29
-1 -57 -5 -42 -10 -51 -23 -46 -13 5 -14 4 -3 -6 6 -7 12 -17 12 -23 0 -5 -3
-6 -7 -3 -3 4 -12 -5 -20 -19 -18 -37 -16 -40 7 -13 l21 24 -16 -32 c-8 -18
-12 -33 -8 -34 5 0 -15 -11 -44 -24 -38 -17 -51 -28 -49 -42 2 -10 9 -18 17
-18 21 0 23 -88 5 -146 -9 -26 -16 -54 -16 -62 0 -7 -8 -31 -19 -52 l-19 -39
39 -28 c21 -15 48 -41 61 -58 12 -17 44 -44 70 -61 64 -41 116 -101 122 -141
5 -35 12 -210 23 -548 5 -168 3 -221 -11 -295 -29 -155 -51 -229 -67 -219 -5
3 -9 0 -9 -6 0 -6 -4 -9 -9 -5 -6 3 -13 -1 -18 -9 -4 -8 -25 -24 -46 -36 l-38
-23 -27 20 c-25 19 -58 70 -99 153 -9 20 -19 68 -21 111 -3 64 1 90 26 170 33
101 66 259 57 268 -11 10 -22 -20 -28 -71 -4 -28 -8 -53 -11 -55 -2 -2 -21 0
-41 6 -64 17 -75 2 -75 -108 0 -80 8 -76 15 9 3 35 6 65 8 66 2 2 14 5 28 6
24 3 24 2 21 -72 -2 -41 -10 -100 -18 -131 -7 -31 -15 -72 -15 -90 -1 -30 -3
-27 -11 16 -12 59 -7 51 -38 59 -20 6 -22 5 -8 -4 10 -6 20 -27 23 -48 4 -20
14 -63 22 -94 9 -31 13 -68 10 -81 -8 -31 -61 -59 -182 -95 -221 -67 -496 -85
-722 -47 -34 6 -63 45 -89 121 -14 41 -10 104 7 104 4 0 5 30 2 66 -5 51 -3
68 8 75 11 7 10 9 -5 9 -10 0 -16 5 -13 13 2 6 12 39 22 72 l18 60 21 -64 c16
-50 18 -65 8 -69 -8 -2 -9 -8 -4 -15 12 -17 58 -143 77 -212 10 -33 23 -66 30
-73 10 -11 13 -4 14 39 1 66 11 76 41 44 52 -56 69 -20 34 73 -14 37 -31 89
-38 115 -6 26 -18 52 -25 56 -19 12 -70 304 -74 418 -2 51 -6 95 -9 98 -3 3
-13 -45 -22 -107 -26 -167 -91 -412 -121 -448 -20 -25 -46 -89 -52 -128 -6
-37 -29 -92 -39 -92 -2 0 -4 214 -4 475 1 321 4 474 11 472 15 -3 90 213 84
240 -8 33 40 82 110 113 57 26 74 31 157 45 33 5 37 10 47 48 25 103 34 134
47 160 8 16 14 36 14 44 0 13 8 14 43 8 37 -7 101 -8 131 -2 7 1 10 -16 9 -48
-3 -85 -5 -94 -25 -101 -11 -3 -18 -8 -15 -10 2 -2 31 4 65 15 61 18 61 18 79
-2 10 -11 32 -26 50 -33 17 -8 34 -18 37 -23 3 -5 37 -19 76 -32 38 -12 70
-27 70 -32 0 -4 12 -8 28 -6 15 1 40 -3 55 -10 16 -6 32 -11 36 -11 5 0 11 46
14 103 3 56 11 116 18 132 7 17 11 35 10 40 -2 6 -5 40 -7 76 -2 37 -10 93
-17 125 -8 33 -12 68 -10 79 8 39 10 210 2 190 -8 -20 -8 -20 -8 1 -1 11 5 26
12 33 10 11 9 12 -2 6 -11 -6 -13 -4 -8 8 3 9 2 19 -3 22 -16 10 -13 88 3 79
10 -6 10 -4 0 7 -18 19 -16 34 2 19 9 -7 18 -10 22 -6 3 3 1 6 -5 6 -7 0 -12
12 -12 26 0 23 2 24 15 10 8 -8 15 -21 15 -29 0 -8 7 -17 15 -21 8 -3 15 -1
15 4 0 6 -5 10 -12 10 -6 0 -8 3 -5 6 4 4 13 1 22 -6 9 -7 18 -11 20 -8 3 3
-1 11 -10 18 -14 11 -13 14 2 26 16 12 16 15 3 24 -8 5 -10 10 -4 10 5 0 16
-6 23 -12 11 -11 13 -10 7 0 -12 21 4 70 25 75 22 6 27 55 7 75 -7 7 -9 12 -4
12 15 0 37 -30 31 -42 -4 -7 1 -4 9 6 18 22 21 40 6 31 -5 -3 -10 0 -10 9 0
23 11 46 22 46 6 0 8 -7 4 -15z m5431 -7 c-3 -8 -6 -5 -6 6 -1 11 2 17 5 13 3
-3 4 -12 1 -19z m-76 2 c10 -6 19 -18 19 -26 0 -8 -5 -12 -11 -8 -8 4 -8 0 0
-15 37 -69 -14 -168 -75 -144 -21 8 -17 40 6 46 11 3 20 10 20 16 0 9 -5 9
-20 1 -16 -9 -20 -8 -20 5 0 9 4 14 9 10 5 -3 13 4 16 15 8 26 29 21 33 -9 3
-18 6 -20 18 -10 23 19 16 39 -21 55 -19 8 -35 17 -35 20 0 3 5 2 12 -2 8 -5
9 -2 5 11 -4 9 -2 24 4 31 14 17 15 17 40 4z m-5824 -25 c53 -58 73 -89 73
-109 0 -13 11 -40 25 -60 17 -25 23 -44 19 -64 l-5 -27 -86 4 c-68 2 -84 0
-81 -10 3 -8 35 -20 74 -27 83 -17 114 -38 39 -27 -27 3 -59 9 -71 11 -25 6
-56 -21 -52 -44 2 -9 13 -19 26 -22 13 -3 23 -9 22 -14 -4 -25 76 -36 98 -14
27 27 34 -32 9 -78 -47 -91 -82 -151 -96 -168 -24 -29 -92 -76 -102 -71 -4 3
-10 -3 -13 -12 -8 -24 -51 -43 -98 -43 -71 0 -87 16 -142 139 -13 28 -15 276
-3 305 6 15 10 17 19 8 26 -26 123 -8 130 25 7 30 -21 63 -52 63 -27 0 -59 25
-47 37 4 3 33 -6 64 -20 35 -16 62 -22 67 -17 13 13 -7 34 -52 54 -24 11 -38
24 -38 36 0 10 3 17 7 14 4 -2 23 18 42 45 20 27 49 57 66 67 17 10 31 22 31
26 0 4 5 8 11 8 5 0 7 -4 4 -10 -9 -15 8 -12 31 4 26 19 59 15 81 -9z m1303
-27 c26 -43 26 -130 0 -205 -11 -32 -27 -89 -35 -127 -9 -38 -23 -81 -30 -95
-19 -35 -19 -15 1 45 8 27 21 110 29 184 8 74 17 150 19 167 3 18 1 35 -5 38
-9 6 -13 25 -4 25 3 0 14 -15 25 -32z m4607 10 c-3 -8 -6 -5 -6 6 -1 11 2 17
5 13 3 -3 4 -12 1 -19z m-3004 -34 c23 -2 44 -3 47 -4 9 -1 -46 -27 -71 -33
-28 -8 -87 -53 -78 -61 3 -3 32 6 65 19 66 28 88 31 82 13 -3 -7 -22 -19 -44
-26 -63 -21 -88 -74 -40 -86 34 -9 52 1 70 37 8 18 16 25 16 16 0 -9 -3 -19
-7 -23 -14 -13 -12 -38 3 -32 26 10 38 -35 37 -139 0 -81 -6 -116 -28 -182
-30 -91 -55 -121 -107 -129 -28 -5 -44 0 -77 22 -23 15 -38 30 -34 34 4 4 33
12 64 19 57 12 99 34 99 52 0 6 -15 1 -34 -10 -36 -23 -91 -28 -102 -10 -11
19 11 29 79 36 37 3 67 9 67 14 0 10 -65 31 -87 28 -10 -2 -31 0 -46 4 -23 6
-36 2 -63 -18 -19 -14 -34 -33 -34 -42 0 -13 -7 -10 -29 11 -32 31 -106 188
-98 209 3 8 22 24 42 36 20 11 33 17 30 11 -7 -12 -3 -12 19 -4 9 3 13 10 10
16 -3 5 0 8 7 6 19 -4 23 3 15 29 -5 15 -21 26 -49 34 -46 14 -79 36 -37 25
14 -3 30 -6 37 -6 7 0 28 -14 48 -31 32 -28 35 -36 35 -83 0 -28 -4 -67 -9
-87 -5 -21 -6 -41 -2 -47 10 -15 47 -23 75 -16 30 7 35 24 8 24 -28 0 -41 37
-44 127 -4 102 -22 131 -96 153 -73 21 -85 37 -36 46 22 5 45 7 52 6 6 -2 12
2 12 9 0 6 7 9 15 5 10 -3 15 1 15 12 0 15 2 15 10 2 11 -17 30 -20 48 -7 6 5
12 6 12 2 0 -4 6 -3 13 3 7 6 18 7 26 2 8 -4 20 -6 28 -3 11 5 11 9 -2 29 -22
34 -18 43 6 15 15 -18 32 -25 62 -27z m2350 -15 c-2 -35 3 -51 22 -73 l24 -29
-27 -38 c-15 -21 -32 -39 -38 -39 -14 0 -64 112 -64 143 0 23 59 88 75 83 6
-2 9 -23 8 -47z m675 -24 c0 -16 -2 -15 -8 5 -11 34 -11 60 0 35 5 -11 8 -29
8 -40z m-5523 15 c3 -6 -1 -7 -9 -4 -18 7 -21 14 -7 14 6 0 13 -4 16 -10z
m1038 -27 c3 -5 -8 -9 -24 -10 -17 -1 -27 2 -24 7 7 12 42 13 48 3z m3872 -31
c-8 -8 -25 10 -25 26 0 13 2 13 14 -4 8 -10 13 -21 11 -22z m641 -119 c6 -88
9 -100 20 -85 12 16 13 15 8 -4 -4 -14 0 -23 10 -27 9 -4 16 -2 16 3 0 6 6 10
14 10 15 0 11 34 -5 56 -5 6 -3 11 6 11 8 0 12 -4 9 -9 -3 -4 2 -8 10 -8 9 0
16 7 16 15 0 9 10 19 22 24 14 5 17 10 10 15 -21 13 -13 21 22 23 l35 1 0
-259 c0 -257 0 -259 -20 -246 -42 26 -111 128 -140 207 -33 90 -33 94 -18 84
8 -4 8 0 0 15 -7 12 -9 26 -6 31 3 5 1 11 -4 14 -5 4 -12 41 -15 84 -4 42 -8
97 -10 120 -2 24 0 40 5 35 4 -4 11 -54 15 -110z m37 63 c4 -10 1 -13 -9 -9
-7 3 -14 9 -14 14 0 14 17 10 23 -5z m-3103 -17 c0 -6 -4 -7 -10 -4 -5 3 -10
11 -10 16 0 6 5 7 10 4 6 -3 10 -11 10 -16z m-1532 -25 c-1 -19 -6 -38 -10
-40 -15 -10 -8 -26 8 -20 15 6 15 4 2 -16 -22 -32 -54 -31 -50 2 2 14 10 30
18 36 8 6 12 19 8 28 -3 9 -1 16 5 16 6 0 11 7 11 15 0 8 2 15 5 15 3 0 5 -16
3 -36z m149 -1 c-3 -10 -5 -4 -5 12 0 17 2 24 5 18 2 -7 2 -21 0 -30z m4543 4
c0 -2 -9 -14 -20 -27 -11 -13 -20 -18 -20 -12 0 6 7 18 16 26 15 15 24 20 24
13z m-3390 -16 c0 -5 -7 -11 -15 -15 -15 -5 -20 5 -8 17 9 10 23 9 23 -2z
m-2915 -51 c3 -5 -1 -10 -9 -10 -9 0 -16 5 -16 10 0 6 4 10 9 10 6 0 13 -4 16
-10z m6275 -44 c0 -3 -4 -8 -10 -11 -5 -3 -10 -1 -10 4 0 6 5 11 10 11 6 0 10
-2 10 -4z m-5991 -37 c-16 -10 -23 -4 -14 10 3 6 11 8 17 5 6 -4 5 -9 -3 -15z
m5658 -1 c15 -19 23 -171 10 -194 -10 -18 -9 -18 10 -2 19 17 19 16 32 -72 8
-49 18 -87 22 -84 5 3 9 33 10 67 l1 62 18 -50 c24 -65 24 -66 -3 -106 -12
-19 -28 -47 -35 -64 l-14 -30 21 19 c12 11 21 25 21 31 0 7 6 18 14 24 24 20
27 -15 17 -155 -6 -71 -8 -187 -5 -259 3 -98 -1 -166 -17 -280 -32 -228 -39
-314 -30 -354 6 -31 8 -25 15 49 12 142 43 356 49 340 10 -28 18 -125 27 -340
7 -180 13 -231 34 -315 15 -55 23 -106 20 -115 -4 -8 -6 -46 -5 -85 2 -96 -4
-104 -68 -77 -28 11 -51 20 -51 18 0 -1 22 -17 49 -34 26 -17 53 -37 58 -44
12 -16 -19 -274 -33 -272 -17 2 -169 35 -206 45 -21 5 -38 14 -38 19 0 6 -7
10 -15 10 -8 0 -15 -4 -15 -10 0 -11 -40 -13 -66 -3 -23 9 82 31 151 33 49 0
85 13 69 23 -5 2 -37 8 -72 12 -68 8 -129 23 -99 24 17 1 17 2 0 28 l-17 26
44 -6 c25 -3 64 -9 88 -13 28 -4 42 -3 42 5 0 6 -16 11 -36 11 -22 0 -33 4
-29 11 4 6 13 8 20 5 17 -6 28 34 14 51 -6 7 -22 12 -35 11 -17 -2 -20 -5 -12
-15 7 -9 7 -13 0 -13 -6 0 -9 -7 -6 -15 4 -8 1 -15 -5 -15 -6 0 -12 8 -12 18
-1 16 -2 16 -6 0 -5 -21 -2 -21 -42 -7 -23 8 -31 17 -31 34 0 13 6 26 13 29 6
4 -12 4 -40 2 -51 -5 -53 -4 -53 19 0 20 5 25 26 25 32 0 157 -36 197 -57 15
-8 37 -11 48 -8 16 6 8 12 -43 37 -35 16 -94 37 -131 45 -49 11 -65 19 -58 26
16 16 140 22 154 8 13 -13 27 -14 27 -2 0 16 -62 30 -142 33 -43 2 -79 6 -79
11 -7 30 -2 32 76 33 44 0 116 2 160 4 66 2 52 4 -79 11 -87 4 -160 10 -163
13 -3 3 -8 108 -11 234 -5 228 -5 229 18 245 l22 15 -24 13 c-38 20 -51 49
-22 49 15 0 16 23 9 254 -8 274 -3 312 39 339 13 9 43 33 68 54 25 21 58 47
74 59 l29 21 -29 41 c-24 35 -65 72 -79 72 -3 0 -7 -8 -11 -17 -3 -10 -34 -56
-69 -103 -68 -91 -100 -110 -116 -68 -12 33 -2 54 15 31 12 -16 13 -15 14 14
0 22 -10 41 -32 65 -18 18 -47 51 -64 73 -30 39 -31 39 -56 23 -19 -13 -28
-31 -37 -77 -12 -61 -31 -92 -31 -49 1 13 13 86 29 163 26 133 28 138 40 110
44 -103 78 -168 97 -186 l23 -21 -20 62 c-19 63 -25 131 -12 144 4 4 20 -8 34
-26 15 -18 31 -29 36 -25 12 12 13 135 2 165 -6 16 -6 29 0 35 14 14 173 77
182 72 4 -3 20 5 36 18 25 22 48 34 64 36 4 1 11 -5 16 -11z m-4480 -204 c3
-8 0 -27 -8 -42 -7 -15 -14 -34 -15 -42 -1 -8 -14 -41 -28 -73 -14 -32 -25
-70 -25 -85 1 -21 2 -22 6 -7 10 40 20 35 22 -11 1 -29 -4 -51 -11 -56 -10 -6
-8 -12 9 -26 11 -9 29 -42 39 -72 9 -30 23 -71 30 -92 13 -35 12 -38 -21 -81
-19 -25 -32 -52 -29 -60 3 -8 -12 -29 -37 -52 l-43 -38 21 -39 c12 -21 17 -36
12 -32 -5 3 -16 19 -24 35 l-16 29 -45 -26 c-35 -21 -47 -24 -59 -14 -8 6 -18
9 -23 6 -5 -3 -32 6 -58 20 l-49 26 20 -23 c14 -17 11 -16 -12 4 l-31 29 -23
-41 c-12 -23 -27 -41 -33 -40 -6 0 -22 13 -34 30 l-24 30 18 60 18 60 18 -23
c24 -32 23 -13 -2 22 -21 30 -21 47 5 200 13 74 15 78 47 90 29 10 31 12 15
21 -13 8 -15 14 -7 30 8 13 8 19 0 19 -6 0 -8 5 -5 11 5 7 13 5 24 -5 22 -20
37 -21 21 -1 -8 10 -9 19 -3 28 13 17 15 65 3 72 -14 9 7 45 26 45 8 0 39 11
67 24 29 14 75 32 102 41 28 10 58 24 68 33 22 19 22 8 -3 -62 -27 -78 -10
-62 25 23 28 71 41 84 52 55z m24 -212 c-6 -2 -11 -23 -11 -47 0 -26 -6 -47
-15 -55 -12 -10 -15 -10 -16 1 -4 45 10 107 29 125 16 17 17 17 21 -1 2 -11
-2 -21 -8 -23z m1444 -44 c6 -53 5 -63 -13 -80 -16 -16 -18 -25 -10 -42 8 -18
4 -28 -24 -58 l-33 -37 22 147 c11 81 22 149 22 151 1 2 7 -2 15 -8 8 -7 17
-39 21 -73z m74 32 c18 -5 44 -5 56 0 31 12 42 0 34 -35 -4 -16 -7 -25 -9 -20
-1 6 -5 1 -9 -9 -6 -17 -10 -14 -29 18 -25 43 -43 45 -71 9 -25 -31 -26 -30
-35 21 -7 35 -6 38 11 31 10 -4 33 -11 52 -15z m-2292 -38 c-10 -10 -17 -33
-17 -50 0 -18 -5 -32 -11 -32 -7 0 -10 14 -7 35 2 19 0 35 -4 35 -4 0 -8 8 -8
18 1 16 2 16 15 -1 13 -18 14 -18 25 3 6 12 14 19 17 16 4 -3 -1 -14 -10 -24z
m2132 -141 c-9 -103 -15 -118 -51 -137 -16 -8 -31 -14 -33 -12 -1 2 -5 30 -9
64 -6 58 -5 61 18 72 14 6 37 29 52 52 15 22 27 40 28 40 1 0 -1 -35 -5 -79z
m273 52 c-9 -4 -10 -9 -3 -17 6 -7 18 -33 26 -57 13 -40 13 -42 -1 -24 -9 11
-24 37 -35 58 -16 31 -18 41 -8 53 9 11 15 12 23 3 8 -8 7 -13 -2 -16z m2399
-75 c69 -106 70 -108 75 -200 4 -72 2 -83 -40 -185 -24 -59 -49 -131 -54 -160
-10 -59 -16 -54 91 -69 26 -3 47 -10 47 -15 0 -5 6 -6 14 -3 8 3 16 -3 19 -16
4 -16 2 -20 -11 -16 -13 4 -174 26 -189 26 -1 0 0 6 3 14 3 8 1 17 -5 21 -7 4
-9 31 -5 75 12 149 3 467 -17 587 -8 45 16 26 72 -59z m-4054 40 c-3 -8 -6 -5
-6 6 -1 11 2 17 5 13 3 -3 4 -12 1 -19z m1585 -20 c-13 -17 -6 -93 14 -146 26
-70 15 -135 -30 -180 -43 -44 -45 -36 -16 79 16 61 19 98 15 160 -5 82 -2 99
17 99 7 0 7 -4 0 -12z m83 -113 c9 -33 21 -65 26 -71 5 -7 -6 -25 -31 -49
l-40 -39 6 30 c3 16 -2 58 -11 93 -10 40 -14 78 -10 103 l7 38 18 -22 c9 -13
25 -50 35 -83z m-397 -24 c-2 -13 -8 -26 -14 -28 -17 -6 -24 34 -12 69 11 32
11 32 20 8 5 -13 8 -35 6 -49z m92 -14 c0 -1 -5 -18 -11 -37 -27 -89 -40 -148
-46 -202 -7 -71 -16 -62 -39 40 l-16 74 26 53 c25 52 47 74 74 75 6 0 12 -1
12 -3z m-1290 -28 c0 -12 16 -39 35 -60 19 -22 35 -44 35 -50 0 -14 -67 -98
-92 -117 -24 -18 -23 -27 10 -73 24 -35 52 -51 52 -31 0 4 19 27 41 52 23 25
37 36 31 25 -6 -12 -26 -38 -46 -59 l-35 -39 31 -54 31 -54 -24 -26 c-13 -14
-49 -47 -79 -73 l-55 -48 3 43 c3 36 -2 52 -27 89 -17 24 -31 50 -31 56 0 6
15 24 33 41 31 29 32 31 33 122 1 72 -3 100 -17 129 -25 50 -25 53 19 103 42
50 52 54 52 24z m1190 -19 c0 -5 -5 -10 -11 -10 -5 0 -7 5 -4 10 3 6 8 10 11
10 2 0 4 -4 4 -10z m-1536 -195 c3 -9 0 -12 -9 -9 -7 3 -16 12 -19 19 -3 9 0
12 9 9 7 -3 16 -12 19 -19z m251 -5 l-29 -30 27 -28 c15 -15 27 -31 27 -35 0
-4 -15 9 -32 29 l-33 35 -33 -34 -34 -35 31 -42 c17 -24 31 -47 31 -52 0 -4
-30 -44 -67 -87 -65 -75 -69 -78 -87 -62 -18 15 -19 15 -13 -14 5 -27 4 -28
-9 -11 -7 10 -11 23 -8 28 13 20 4 109 -12 138 -17 28 -17 30 0 49 15 16 18
32 14 76 -3 30 -2 53 0 50 3 -3 13 2 22 10 14 13 20 10 54 -30 l37 -45 67 60
c73 65 93 78 47 30z m254 -39 l-2 -26 -4 25 c-3 14 -9 29 -14 35 -5 5 -9 14
-9 20 0 5 7 1 15 -9 8 -11 14 -31 14 -45z m-617 -18 c20 -21 50 -56 66 -78
l29 -40 -30 -53 -30 -53 24 -27 24 -27 -26 23 c-28 25 -35 22 -54 -25 -8 -18
-18 -33 -22 -33 -4 1 -27 18 -50 39 -39 35 -44 45 -52 101 -5 41 -4 75 3 99
11 36 62 111 75 111 4 0 23 -17 43 -37z m56 -3 c-7 -10 -14 -17 -17 -15 -4 4
18 35 25 35 2 0 -1 -9 -8 -20z m587 -185 c-2 -69 -6 -88 -29 -128 -28 -46 -45
-63 -31 -29 11 24 7 63 -10 112 -15 42 -15 44 15 88 16 25 30 59 31 76 l1 31
12 -34 c7 -19 12 -71 11 -116z m-731 -132 c3 -21 6 -50 6 -65 0 -45 18 -41 43
8 l24 47 33 -41 c18 -23 37 -39 41 -36 5 3 6 -1 4 -9 -3 -7 3 -22 15 -32 11
-10 20 -21 20 -24 0 -3 -43 -6 -95 -7 -109 -1 -103 -7 -104 104 0 40 -3 77 -6
83 -4 5 -2 9 3 9 5 0 12 -17 16 -37z m192 -21 c-17 -16 -18 -16 -5 5 7 12 15
20 18 17 3 -2 -3 -12 -13 -22z m125 -43 l17 -24 22 25 22 25 -20 -30 c-18 -27
-19 -33 -6 -55 7 -14 13 -28 14 -31 0 -12 -119 -7 -123 5 -3 6 -1 36 4 65 4
30 6 57 4 62 -3 4 1 9 7 12 13 5 31 -11 59 -54z m198 -49 c5 -3 12 -20 16 -37
7 -33 6 -33 -32 -32 -21 0 -46 4 -56 8 -17 6 -17 8 -3 20 9 7 16 19 16 26 0 7
7 18 15 25 11 9 14 23 10 44 -4 26 -3 25 10 -9 9 -21 19 -42 24 -45z m-561 -5
c28 -44 28 -47 -5 -43 -24 3 -28 8 -31 41 -3 46 7 47 36 2z m715 -29 c1 -32
-2 -46 -11 -46 -24 0 -3 -17 28 -23 l30 -6 -1 -73 c0 -40 -8 -104 -17 -143
l-17 -70 -82 -33 c-108 -43 -232 -69 -373 -77 -130 -8 -258 6 -276 31 -8 10
-12 67 -12 162 0 81 -3 164 -7 186 -5 25 -4 41 4 45 6 4 50 8 98 10 48 1 90 4
94 7 12 7 487 -24 502 -33 4 -2 7 1 7 6 0 6 -10 11 -22 11 -19 0 -20 2 -6 18
9 9 23 32 33 50 20 41 26 37 28 -22z m116 -142 c-6 -8 -20 -14 -31 -14 -14 0
-18 6 -15 24 1 13 9 31 17 40 12 15 11 18 -8 23 -12 3 -22 6 -22 8 0 18 25 65
35 65 8 0 17 10 22 23 5 15 9 -6 11 -66 2 -57 -1 -94 -9 -103z m412 83 c-7
-29 -15 -68 -17 -87 -2 -19 -6 -47 -9 -62 -6 -38 7 -42 28 -7 9 17 12 27 7 24
-6 -4 -10 13 -10 41 0 108 30 -8 46 -179 7 -72 1 -97 -32 -136 -14 -17 -22
-31 -17 -31 11 0 60 45 66 62 4 10 8 10 16 -2 6 -8 9 -20 7 -27 -3 -6 2 -14
11 -17 21 -8 11 -112 -23 -244 -27 -108 -25 -115 37 -134 46 -13 47 -23 22
-125 -18 -73 -25 -408 -11 -568 3 -45 3 -65 -1 -45 -5 21 -9 27 -10 14 -1 -27
-8 -33 -32 -27 -12 3 -18 11 -15 19 3 8 -1 14 -10 14 -8 0 -12 -4 -9 -10 3 -5
2 -10 -4 -10 -5 0 -12 4 -16 10 -3 5 -13 6 -22 3 -10 -4 -14 -2 -10 4 4 6 -3
9 -18 7 -31 -3 -41 11 -18 25 17 9 16 16 -16 108 -19 54 -52 136 -74 183 -34
75 -40 98 -48 195 -5 61 -11 121 -14 133 -3 14 26 151 69 320 40 164 79 342
86 397 6 55 16 117 21 137 5 21 10 54 11 75 1 33 2 35 11 15 7 -16 6 -39 -2
-75z m1666 -244 c-3 -38 -9 -77 -12 -88 -5 -15 -5 -17 3 -6 9 13 14 11 30 -10
25 -30 20 -37 -13 -19 -14 7 -26 11 -28 9 -14 -17 -86 -159 -91 -179 -3 -14 5
-2 18 25 17 36 25 44 25 28 1 -12 5 -24 9 -27 23 -14 11 -97 -56 -371 -7 -25
-11 -14 -36 80 -37 143 -41 165 -27 165 16 0 61 46 61 62 0 7 -7 2 -16 -11
-19 -26 -87 -60 -122 -61 -13 0 -25 7 -28 18 -3 9 -16 40 -29 67 -51 104 -57
243 -13 287 28 28 100 58 166 69 32 5 75 13 97 18 71 16 68 18 62 -56z m-1059
-60 c6 -54 14 -107 18 -119 5 -18 2 -20 -33 -17 -21 2 -48 6 -60 9 l-22 4 19
43 c10 23 26 72 36 110 9 37 19 67 23 67 4 0 12 -44 19 -97z m-1277 -109 c2 3
5 -7 5 -20 2 -30 1 -29 -20 16 -11 23 -12 29 -3 18 8 -10 16 -16 18 -14z
m-296 -86 c6 2 5 0 -1 -7 -8 -8 -23 -6 -62 11 -28 13 -53 28 -56 34 -2 5 22
-2 53 -17 31 -15 61 -24 66 -21z m70 36 c-26 -20 -55 -36 -55 -30 0 5 63 46
70 46 3 -1 -4 -8 -15 -16z m242 -26 c-3 -8 -6 -5 -6 6 -1 11 2 17 5 13 3 -3 4
-12 1 -19z m4397 7 c-4 -8 -8 -15 -10 -15 -2 0 -4 7 -4 15 0 8 4 15 10 15 5 0
7 -7 4 -15z m-1924 -9 c0 -9 -30 -14 -35 -6 -4 6 3 10 14 10 12 0 21 -2 21 -4z
m-2793 -88 c-2 -13 -4 -5 -4 17 -1 22 1 32 4 23 2 -10 2 -28 0 -40z m4537 25
c-5 -5 -12 -12 -16 -18 -4 -6 -8 -2 -8 8 0 9 7 17 17 17 9 0 12 -3 7 -7z
m-5426 -1250 l2 -653 -95 0 -95 0 0 191 0 190 -182 -3 -183 -3 -3 -52 c-3 -57
-8 -54 101 -69 26 -3 47 -10 47 -15 0 -4 -12 -20 -26 -34 -14 -14 -26 -34 -27
-45 -1 -11 -4 -20 -8 -20 -4 0 -10 -15 -13 -32 -15 -76 -19 -88 -25 -92 -3 -2
-97 -7 -208 -11 l-203 -7 0 132 0 131 85 -7 85 -7 0 157 0 156 95 0 95 0 0 95
0 95 95 0 95 0 0 185 0 185 90 0 90 0 0 88 c0 49 3 92 7 96 4 4 46 5 93 4 l85
-3 3 -652z m4114 492 l0 -90 -96 -3 -96 -3 0 96 0 96 96 -3 96 -3 0 -90z
m-522 -115 l0 -130 90 0 90 0 0 -75 0 -75 -91 0 -91 0 4 -275 c3 -270 3 -275
26 -297 19 -19 33 -23 87 -23 64 0 65 0 65 -27 0 -21 5 -28 19 -28 11 0 23 -5
26 -11 4 -6 20 -7 38 -3 18 3 37 7 42 8 6 0 13 6 17 11 4 6 8 187 8 403 l0
393 94 -3 95 -3 3 -445 2 -445 -179 -1 c-99 0 -227 -1 -286 -3 -122 -3 -175
13 -213 62 l-24 31 -12 -42 -11 -42 -84 0 c-47 0 -85 3 -85 8 0 4 17 85 37
180 30 136 41 172 53 169 12 -2 14 -20 11 -105 -2 -73 0 -102 9 -102 6 0 18
-7 26 -15 9 -8 22 -15 30 -15 12 0 14 48 14 310 l0 310 -75 0 -75 0 0 75 0 75
75 0 75 0 0 130 0 130 95 0 95 0 0 -130z m1380 -190 l0 -90 90 0 90 0 0 -185
0 -185 -90 0 -90 0 0 -95 0 -95 -95 0 -94 0 6 -32 c4 -18 17 -58 29 -88 l22
-55 -36 -7 c-48 -9 -263 -10 -435 -1 l-137 6 0 57 c0 72 19 93 82 89 29 -2 53
3 68 14 24 16 22 17 -68 17 l-92 0 0 185 0 185 95 0 95 0 0 95 0 94 93 3 92 3
0 88 0 87 188 0 187 0 0 -90z m-1987 46 c31 -15 70 -44 87 -64 56 -68 60 -100
60 -479 l0 -344 -97 3 -98 3 -5 330 c-5 345 -6 349 -52 392 -60 56 -211 43
-269 -23 -52 -59 -54 -70 -59 -394 l-5 -305 -97 -3 -98 -3 0 451 0 451 93 -3
92 -3 0 -63 c0 -34 1 -62 2 -62 2 0 22 21 45 46 73 79 138 105 259 101 70 -2
96 -8 142 -31z m2897 23 c73 -16 139 -65 172 -129 l28 -52 0 -364 0 -364 -95
0 -95 0 -2 108 -2 107 -3 -102 -4 -103 -34 0 c-19 0 -35 2 -35 4 0 2 18 55 40
119 l40 114 0 195 c0 181 -1 197 -22 238 -30 58 -72 82 -147 83 -108 1 -191
-71 -211 -185 -6 -31 -9 -105 -8 -164 l3 -108 76 -13 c88 -14 178 -45 211 -73
l23 -18 -32 -94 -32 -93 -216 -9 c-126 -4 -221 -4 -226 1 -5 5 -6 197 -2 451
l6 442 89 0 88 0 0 -65 c0 -36 3 -65 8 -65 4 0 16 14 27 30 64 96 209 140 355
109z"/>
<path d="M1868 8115 c-15 -9 -35 -29 -43 -45 l-16 -30 140 0 c131 0 141 1 151
21 6 11 10 30 8 42 -3 21 -8 22 -108 24 -78 2 -112 -1 -132 -12z"/>
<path d="M4040 8115 c-14 -7 -33 -27 -43 -44 l-18 -31 144 0 145 0 11 31 c18
52 4 59 -113 59 -66 -1 -110 -6 -126 -15z"/>
<path d="M4880 7979 c-146 -29 -170 -40 -170 -80 0 -34 25 -41 134 -37 87 2
108 6 126 23 19 17 70 104 70 120 0 6 10 8 -160 -26z"/>
<path d="M4060 7420 l0 -53 46 6 c46 5 64 18 64 47 0 29 -18 42 -64 47 l-46 6
0 -53z"/>
<path d="M987 7372 c-22 -24 -13 -32 40 -32 44 0 55 14 31 38 -18 18 -53 15
-71 -6z"/>
<path d="M1856 7374 c-26 -25 -19 -34 28 -34 51 0 64 11 40 34 -20 20 -48 20
-68 0z"/>
<path d="M2165 7304 c-5 -1 -23 -5 -38 -8 -22 -5 -28 -12 -25 -29 4 -27 48
-36 67 -13 14 17 11 54 -4 50z"/>
<path d="M4926 7374 c-26 -25 -19 -34 28 -34 51 0 64 11 40 34 -20 20 -48 20
-68 0z"/>
<path d="M5916 7374 c-26 -25 -19 -34 28 -34 51 0 64 11 40 34 -20 20 -48 20
-68 0z"/>
<path d="M6225 7304 c-5 -1 -23 -5 -38 -8 -22 -5 -28 -12 -25 -29 4 -27 48
-36 67 -13 14 17 11 54 -4 50z"/>
<path d="M5900 6660 c0 -39 1 -40 35 -40 34 0 35 1 35 40 0 39 -1 40 -35 40
-34 0 -35 -1 -35 -40z"/>
<path d="M660 6700 l0 -30 60 0 60 0 0 30 0 30 -60 0 -60 0 0 -30z"/>
<path d="M5325 6767 c-52 -80 -44 -215 17 -260 26 -19 28 -19 53 -3 41 27 58
79 52 159 -5 82 -28 120 -75 125 -24 2 -34 -3 -47 -21z"/>
<path d="M3995 6778 c-53 -28 -62 -93 -19 -127 54 -42 128 -18 140 46 5 27 1
37 -24 63 -32 31 -63 37 -97 18z"/>
<path d="M1260 6640 l0 -130 40 0 40 0 0 130 0 130 -40 0 -40 0 0 -130z"/>
<path d="M4614 6630 c-52 -21 -29 -80 31 -80 62 0 82 60 28 81 -28 11 -31 11
-59 -1z"/>
<path d="M2690 6390 l0 -40 120 0 120 0 0 40 0 40 -120 0 -120 0 0 -40z"/>
<path d="M4910 5535 c0 -5 -17 -11 -37 -12 -56 -3 -155 -57 -220 -121 -99 -97
-156 -236 -192 -467 -11 -72 -27 -150 -36 -175 -29 -79 -19 -207 20 -267 15
-23 60 -48 79 -44 4 1 14 -6 21 -15 11 -16 13 -15 28 6 8 12 20 19 26 16 5 -4
13 -1 18 6 4 7 16 19 25 26 15 12 21 9 49 -22 28 -32 36 -36 80 -36 l48 0 11
-42 c6 -24 14 -52 19 -62 5 -15 -8 -42 -56 -112 -35 -51 -63 -98 -63 -104 0
-6 21 20 48 59 26 38 85 111 130 160 74 80 85 89 99 76 10 -11 20 -12 32 -5
13 6 24 5 37 -5 17 -12 22 -10 49 19 23 26 41 35 80 41 28 4 66 14 85 22 19 8
44 16 54 19 11 2 23 9 27 16 9 13 12 15 53 17 21 1 25 7 30 49 4 26 2 71 -4
101 -5 30 -17 129 -25 220 -19 195 -41 286 -97 394 -80 153 -175 218 -326 221
-52 2 -76 6 -83 17 -5 7 -9 10 -9 4z m-28 -499 c41 14 88 -2 88 -31 0 -9 -10
-10 -42 -3 -59 14 -128 -4 -128 -33 0 -18 4 -20 26 -15 25 7 25 6 10 -16 -24
-34 -20 -61 13 -81 15 -9 30 -15 32 -13 2 2 23 6 47 10 l42 6 -6 -177 c-5
-136 -10 -182 -22 -195 -25 -29 -97 -51 -148 -45 -52 5 -72 21 -76 57 -3 22 1
25 27 25 40 0 43 18 5 28 -17 4 -28 12 -25 18 4 5 11 7 16 3 5 -3 16 0 24 6 9
8 28 10 49 6 19 -4 37 -2 40 3 7 11 -17 21 -50 21 -13 0 -24 4 -24 9 0 5 -10
7 -21 4 -19 -5 -20 -3 -14 18 7 21 6 22 -9 10 -14 -12 -16 -11 -16 3 0 27 27
48 51 41 15 -5 19 -4 14 5 -4 6 -18 10 -32 7 -16 -3 -31 2 -44 16 -24 26 -24
30 1 95 31 80 27 119 -16 163 -21 21 -33 42 -29 49 5 8 11 6 19 -6 11 -14 21
-16 52 -9 21 4 52 7 67 7 25 -1 27 2 21 21 -7 22 -6 22 14 4 15 -14 27 -17 44
-11z m96 -88 c3 -13 -3 -18 -21 -18 -26 0 -52 22 -40 34 13 13 58 1 61 -16z
m-83 -58 c3 -5 -1 -10 -9 -10 -9 0 -16 5 -16 10 0 6 4 10 9 10 6 0 13 -4 16
-10z m-212 -43 c5 -14 -29 -124 -46 -145 -9 -11 -13 -9 -23 10 -7 13 -15 40
-19 60 -7 34 -5 38 32 62 45 29 49 30 56 13z"/>
<path d="M2535 5520 c-3 -6 1 -7 9 -4 18 7 21 14 7 14 -6 0 -13 -4 -16 -10z"/>
<path d="M5845 5520 c3 -5 8 -10 11 -10 2 0 4 5 4 10 0 6 -5 10 -11 10 -5 0
-7 -4 -4 -10z"/>
<path d="M2560 5501 c0 -6 5 -13 10 -16 6 -3 10 1 10 9 0 9 -4 16 -10 16 -5 0
-10 -4 -10 -9z"/>
<path d="M6060 5391 c0 -5 5 -13 10 -16 6 -3 10 -2 10 4 0 5 -4 13 -10 16 -5
3 -10 2 -10 -4z"/>
<path d="M4565 4326 c17 -9 36 -15 43 -16 6 0 12 -4 12 -9 0 -19 -21 -22 -57
-9 -30 11 -37 11 -41 0 -3 -10 -7 -10 -18 -1 -11 9 -18 8 -32 -5 -10 -9 -24
-16 -30 -16 -7 0 -12 -6 -12 -14 0 -8 -7 -22 -16 -30 -30 -31 -1 -15 38 19 31
28 42 33 57 26 10 -6 22 -7 26 -3 5 4 5 2 1 -5 -3 -6 -2 -14 3 -17 5 -3 11 1
15 9 3 8 18 15 34 15 27 0 52 15 52 32 0 10 -37 25 -78 33 -27 5 -27 5 3 -9z"/>
<path d="M4519 4213 c-13 -16 -12 -17 4 -4 9 7 17 15 17 17 0 8 -8 3 -21 -13z"/>
<path d="M4494 4178 c-4 -7 1 -17 14 -26 17 -11 19 -18 10 -43 -10 -30 -26
-37 -45 -18 -7 7 -17 0 -32 -26 -11 -20 -16 -33 -9 -29 7 4 8 3 4 -5 -4 -6
-12 -9 -17 -6 -5 4 -22 -3 -38 -14 -16 -12 -36 -21 -45 -21 -9 0 -16 -7 -16
-15 0 -14 3 -14 30 0 16 8 33 14 37 13 18 -5 51 14 63 37 7 13 17 22 21 19 5
-2 23 11 41 31 32 34 34 35 68 24 51 -17 59 -26 76 -88 24 -89 36 -113 50
-107 18 7 34 -25 34 -68 0 -53 17 -52 45 4 26 51 41 66 32 30 -3 -11 -3 -20 0
-20 10 0 33 29 33 42 0 15 24 110 36 143 5 15 2 13 -14 -7 -12 -14 -22 -29
-22 -32 0 -3 -10 -16 -22 -28 l-22 -22 -38 45 c-21 24 -38 47 -38 52 0 4 -4 7
-10 7 -5 0 -10 -9 -10 -19 0 -11 -5 -23 -10 -26 -6 -4 -8 -11 -5 -16 4 -5 2
-9 -2 -9 -5 0 -19 27 -31 61 -19 54 -20 62 -7 76 8 8 12 19 9 24 -3 6 -11 3
-19 -7 -7 -10 -19 -15 -29 -11 -10 4 -16 1 -16 -9 0 -14 -2 -14 -15 0 -8 8
-15 19 -15 25 0 5 -9 12 -19 16 -11 3 -22 12 -25 20 -7 18 -22 19 -32 3z"/>
<path d="M4290 3932 c0 -34 19 -92 30 -92 4 0 11 -21 14 -47 12 -83 38 -193
47 -199 5 -3 9 3 9 12 0 14 3 15 12 6 8 -8 8 -15 -1 -26 -8 -9 -10 -24 -6 -37
7 -22 8 -22 23 7 13 23 17 26 20 11 2 -10 -1 -24 -8 -32 -8 -10 -8 -14 2 -18
10 -4 11 -7 1 -18 -20 -20 -15 -31 8 -19 11 6 33 8 49 5 25 -6 31 -2 46 27 9
18 32 56 52 83 32 47 33 48 6 23 l-29 -27 3 57 c3 52 1 60 -26 87 -39 41 -117
137 -130 162 -11 20 -51 43 -99 58 -20 6 -23 3 -23 -23z m27 -44 c-3 -8 -6 -5
-6 6 -1 11 2 17 5 13 3 -3 4 -12 1 -19z"/>
<path d="M4746 3765 c-3 -8 -1 -15 4 -15 13 0 22 18 11 24 -5 3 -11 -1 -15 -9z"/>
<path d="M5130 3135 c0 -8 7 -15 15 -15 8 0 15 7 15 15 0 8 -7 15 -15 15 -8 0
-15 -7 -15 -15z"/>
<path d="M5072 3110 c-17 -18 -24 -20 -35 -12 -8 7 -17 9 -20 5 -14 -13 -6
-20 23 -21 17 0 30 3 30 8 0 12 28 21 35 10 3 -5 -3 -17 -14 -27 -13 -13 -17
-27 -14 -50 5 -32 18 -39 61 -34 7 1 12 -9 12 -24 0 -16 6 -25 15 -25 9 0 15
9 15 23 0 36 -15 50 -43 43 -21 -5 -25 -2 -31 26 -3 17 -2 34 2 37 16 11 22
41 8 41 -8 0 -16 5 -18 12 -3 7 -12 2 -26 -12z"/>
<path d="M4887 3063 c-13 -12 -7 -25 8 -19 22 8 18 -12 -5 -26 -11 -7 -21 -22
-21 -33 -1 -18 -2 -18 -6 -2 -3 12 -10 16 -20 13 -11 -5 -13 -2 -9 10 3 8 6
18 6 20 0 2 7 4 15 4 8 0 15 5 15 10 0 6 -7 10 -15 10 -8 0 -15 -4 -15 -10 0
-5 -13 -10 -30 -10 -16 0 -30 -5 -30 -11 0 -6 9 -8 20 -4 25 8 26 -10 1 -27
-17 -12 -18 -20 -11 -58 5 -25 11 -54 15 -65 6 -19 6 -19 -6 -1 -6 11 -17 42
-23 70 -6 28 -16 50 -21 48 -16 -5 -7 -72 15 -106 15 -25 17 -35 8 -44 -9 -9
-8 -12 5 -12 9 0 17 5 17 11 0 7 11 9 30 6 17 -4 30 -2 30 3 0 6 -4 10 -9 10
-19 0 -22 39 -5 59 22 25 34 18 34 -18 0 -16 7 -34 15 -41 16 -13 17 -12 19
39 0 19 7 36 14 38 6 3 12 0 12 -6 0 -5 5 -22 10 -37 8 -20 14 -24 22 -16 7 7
7 25 -2 64 -19 84 -20 88 -37 88 -8 0 -13 6 -11 12 3 7 -1 18 -8 25 -14 15
-18 16 -27 6z m37 -75 c9 -36 7 -48 -9 -48 -8 0 -15 9 -15 19 0 11 -3 26 -6
35 -4 10 -1 16 9 16 8 0 17 -10 21 -22z m-91 -5 c2 -5 7 -20 11 -35 5 -21 3
-28 -9 -28 -8 0 -15 6 -15 13 0 6 -3 22 -6 35 -6 20 9 32 19 15z"/>
<path d="M5000 3049 c0 -5 5 -7 10 -4 6 3 10 8 10 11 0 2 -4 4 -10 4 -5 0 -10
-5 -10 -11z"/>
<path d="M5030 3039 c0 -15 30 -132 37 -142 3 -5 10 -4 15 1 15 15 -20 152
-38 152 -8 0 -14 -5 -14 -11z"/>
<path d="M4970 3020 c0 -20 23 -116 32 -134 20 -38 26 1 10 72 -10 45 -20 72
-29 72 -7 0 -13 -4 -13 -10z"/>
<path d="M5100 2930 c0 -5 5 -10 10 -10 6 0 10 5 10 10 0 6 -4 10 -10 10 -5 0
-10 -4 -10 -10z"/>
<path d="M5130 2919 c0 -5 5 -7 10 -4 6 3 10 8 10 11 0 2 -4 4 -10 4 -5 0 -10
-5 -10 -11z"/>
<path d="M2614 1577 c0 -45 -3 -95 -7 -112 l-8 -30 21 21 c27 26 35 94 19 151
-6 24 -15 45 -18 47 -4 3 -7 -32 -7 -77z"/>
<path d="M2878 1440 c-58 -17 -111 -60 -74 -60 21 0 36 -23 25 -40 -6 -11 -11
-12 -16 -4 -12 18 -50 26 -58 13 -10 -15 13 -29 51 -29 33 0 60 -22 49 -40 -3
-5 -12 -10 -18 -10 -7 0 -13 -9 -13 -20 0 -19 7 -20 173 -20 l172 0 -16 53
c-18 62 -22 69 -33 62 -5 -3 -12 0 -16 6 -4 8 -3 9 4 5 22 -14 12 10 -15 37
-53 50 -141 70 -215 47z m143 -114 c5 3 9 0 9 -5 0 -6 7 -11 16 -11 8 0 12 -4
9 -10 -7 -12 -55 17 -54 34 0 7 2 6 6 -2 2 -6 9 -10 14 -6z m101 -8 c-16 -16
-15 -43 2 -57 11 -9 15 -9 19 1 4 8 6 6 6 -5 1 -15 -8 -17 -69 -16 -38 1 -70
5 -70 9 0 4 -7 11 -16 14 -12 4 -15 2 -10 -9 3 -8 1 -15 -4 -15 -6 0 -11 6
-12 13 0 6 -2 17 -2 22 -1 6 -5 16 -9 23 -6 8 -1 12 13 12 18 0 19 -3 10 -20
-9 -16 -8 -18 5 -14 8 4 15 10 15 16 0 5 5 6 10 3 6 -4 8 -10 6 -14 -3 -4 -1
-13 5 -21 5 -9 9 -10 9 -4 0 7 7 15 16 18 8 3 12 2 9 -4 -3 -6 -2 -10 4 -10 5
0 18 -3 28 -7 17 -7 17 -6 1 11 -10 9 -18 25 -18 34 1 12 5 10 15 -8 13 -23
14 -23 15 -4 0 18 17 44 29 44 3 0 0 -5 -7 -12z m-177 -59 c-7 -10 -35 -1 -35
11 0 5 9 6 20 3 11 -3 17 -9 15 -14z"/>
<path d="M2720 1239 c0 -20 20 -24 52 -11 14 6 10 10 -17 18 -31 10 -35 9 -35
-7z"/>
<path d="M2725 1040 c4 -25 11 -52 16 -60 9 -15 8 -4 -6 65 l-5 25 232 2 233
3 -238 5 -239 5 7 -45z"/>
<path d="M3208 1073 c7 -3 16 -2 19 1 4 3 -2 6 -13 5 -11 0 -14 -3 -6 -6z"/>
<path d="M3188 983 c12 -2 32 -2 45 0 12 2 2 4 -23 4 -25 0 -35 -2 -22 -4z"/>
<path d="M2750 954 c0 -5 14 -25 31 -44 l30 -35 -27 40 c-16 22 -29 42 -31 44
-2 2 -3 0 -3 -5z"/>
<path d="M3136 933 c-6 -14 -5 -15 5 -6 7 7 10 15 7 18 -3 3 -9 -2 -12 -12z"/>
<path d="M3104 888 l-19 -23 23 19 c21 18 27 26 19 26 -2 0 -12 -10 -23 -22z"/>
<path d="M3269 793 c-13 -16 -12 -17 4 -4 16 13 21 21 13 21 -2 0 -10 -8 -17
-17z"/>
<path d="M6533 5236 c-31 -66 10 -94 111 -74 33 6 69 18 80 24 17 12 16 14
-15 33 -21 13 -48 20 -71 19 -23 -1 -44 4 -56 15 -26 23 -30 22 -49 -17z"/>
<path d="M6466 5031 c-3 -5 4 -11 16 -14 25 -7 33 -3 23 12 -8 13 -32 14 -39
2z"/>
<path d="M2030 4921 c0 -33 -4 -62 -9 -65 -5 -3 -14 -20 -20 -36 -8 -26 -7
-33 10 -49 17 -15 27 -17 60 -10 22 5 44 7 50 4 5 -4 9 -2 9 4 0 17 -20 23
-35 11 -11 -9 -18 -7 -35 10 -19 19 -20 28 -14 105 5 61 4 85 -5 85 -7 0 -11
-22 -11 -59z"/>
<path d="M1570 5070 c0 -5 5 -10 11 -10 5 0 7 5 4 10 -3 6 -8 10 -11 10 -2 0
-4 -4 -4 -10z"/>
<path d="M1600 5050 c-9 -6 -10 -10 -3 -10 6 0 15 5 18 10 8 12 4 12 -15 0z"/>
<path d="M1494 4966 c2 -17 0 -41 -5 -55 -9 -25 -8 -25 6 -7 17 22 17 29 4 66
-8 24 -8 23 -5 -4z"/>
<path d="M1600 4954 c0 -15 45 -56 53 -47 4 3 7 16 6 27 0 12 -3 15 -6 9 -7
-19 -30 -16 -42 5 -6 9 -11 12 -11 6z"/>
<path d="M1607 4905 c3 -8 9 -12 14 -9 12 7 11 11 -5 17 -10 4 -13 1 -9 -8z"/>
<path d="M1603 4865 c0 -8 4 -12 9 -9 5 3 6 10 3 15 -9 13 -12 11 -12 -6z"/>
<path d="M1632 4858 c-7 -7 -12 -16 -12 -21 0 -5 7 -1 16 8 9 9 14 18 12 20
-2 3 -10 -1 -16 -7z"/>
<path d="M1425 4850 c-3 -5 -1 -10 4 -10 6 0 11 5 11 10 0 6 -2 10 -4 10 -3 0
-8 -4 -11 -10z"/>
<path d="M1365 4840 c-3 -6 1 -7 9 -4 18 7 21 14 7 14 -6 0 -13 -4 -16 -10z"/>
<path d="M1525 4390 c-3 -5 -1 -10 4 -10 6 0 11 5 11 10 0 6 -2 10 -4 10 -3 0
-8 -4 -11 -10z"/>
<path d="M952 4026 c7 -8 15 -12 17 -11 5 6 -10 25 -20 25 -5 0 -4 -6 3 -14z"/>
<path d="M861 4021 c-12 -8 -9 -11 12 -17 30 -7 43 -1 32 15 -8 13 -25 14 -44
2z"/>
<path d="M861 3974 c16 -19 65 -36 94 -32 22 2 14 7 -38 23 -38 12 -62 16 -56
9z"/>
<path d="M1220 3880 c-8 -5 -11 -12 -7 -16 4 -4 13 -2 19 4 15 15 7 24 -12 12z"/>
<path d="M880 3835 c-11 -13 -11 -18 0 -28 10 -9 11 -9 5 2 -4 8 -2 17 6 22 7
4 11 11 8 14 -4 3 -12 -2 -19 -10z"/>
<path d="M670 3783 c-36 -9 -76 -16 -90 -17 -15 -1 -30 -10 -38 -24 -18 -32
-12 -35 34 -16 31 13 62 16 159 11 106 -4 128 -8 187 -35 60 -27 69 -29 85
-15 17 14 17 14 -2 9 -19 -6 -19 -5 -2 8 18 14 15 16 -33 30 -29 9 -56 13 -61
10 -5 -3 -9 0 -9 5 0 6 7 11 15 11 27 0 16 16 -17 27 -51 15 -156 13 -228 -4z"/>
<path d="M928 3793 c7 -3 16 -2 19 1 4 3 -2 6 -13 5 -11 0 -14 -3 -6 -6z"/>
<path d="M1029 3775 c25 -8 49 -21 53 -29 9 -16 38 -22 38 -8 0 17 -68 52
-101 51 l-34 0 44 -14z"/>
<path d="M1153 3758 c2 -7 9 -13 15 -12 7 1 23 2 37 3 42 2 28 21 -16 21 -28
0 -39 -4 -36 -12z"/>
<path d="M1174 3655 c5 -15 -5 -21 -17 -9 -11 11 -87 10 -88 -1 0 -6 10 -13
23 -17 38 -10 88 -9 88 3 0 6 7 8 17 5 15 -6 15 -4 -2 14 -22 24 -29 26 -21 5z"/>
<path d="M1263 3627 c26 -24 47 -49 47 -55 0 -7 8 -12 18 -12 26 0 25 39 -1
62 l-22 20 23 -5 c12 -3 20 -1 17 3 -5 8 -92 30 -118 30 -7 0 9 -19 36 -43z"/>
<path d="M1367 3624 c-3 -4 0 -13 8 -20 8 -8 12 -22 9 -32 -4 -11 2 -8 16 8
17 19 20 21 16 6 -6 -16 -4 -17 9 -6 14 11 12 15 -15 31 -34 21 -34 21 -43 13z"/>
<path d="M1475 3573 c-22 -3 -45 -9 -52 -15 -9 -7 -13 -7 -13 2 0 9 -7 7 -20
-5 -30 -27 -24 -34 18 -20 20 7 53 16 72 19 31 6 33 5 17 -7 -17 -14 -17 -15
2 -20 16 -4 18 -10 11 -48 -5 -24 -8 -46 -8 -49 0 -2 -7 -7 -14 -10 -11 -4
-11 -11 2 -39 l17 -33 11 95 c14 112 15 138 5 135 -5 -1 -26 -3 -48 -5z"/>
<path d="M1342 2910 c0 -19 2 -27 5 -17 2 9 2 25 0 35 -3 9 -5 1 -5 -18z"/>
<path d="M1158 2913 c7 -3 16 -2 19 1 4 3 -2 6 -13 5 -11 0 -14 -3 -6 -6z"/>
<path d="M1210 2900 c34 -11 60 -11 35 0 -11 5 -29 8 -40 8 -16 0 -15 -2 5 -8z"/>
<path d="M837 4663 c-15 -14 -6 -53 14 -64 15 -8 19 -8 15 0 -10 15 0 14 27
-3 35 -23 81 -24 85 -3 3 15 0 18 -18 12 -13 -4 -31 0 -47 10 -14 9 -34 14
-45 12 -17 -5 -19 -2 -15 19 4 23 -3 31 -16 17z"/>
<path d="M792 4533 c-20 -4 -23 -9 -17 -31 3 -14 14 -31 23 -38 45 -33 170
-45 164 -15 -2 8 3 11 13 8 22 -9 18 14 -8 45 -20 25 -26 27 -59 19 -28 -7
-38 -5 -42 5 -5 14 -28 16 -74 7z m79 -44 c19 -6 40 -13 48 -15 11 -4 11 -8 3
-16 -15 -15 -87 6 -96 27 -6 18 0 18 45 4z"/>
<path d="M3915 4700 c-3 -5 3 -10 15 -10 12 0 18 5 15 10 -3 6 -10 10 -15 10
-5 0 -12 -4 -15 -10z"/>
<path d="M7070 4712 c0 -5 7 -9 15 -9 8 0 15 4 15 9 0 4 -7 8 -15 8 -8 0 -15
-4 -15 -8z"/>
<path d="M7210 4416 c0 -2 8 -10 18 -17 15 -13 16 -12 3 4 -13 16 -21 21 -21
13z"/>
<path d="M6660 4413 c-203 -177 -191 -165 -174 -184 15 -17 18 -15 40 29 13
26 42 60 63 76 36 26 161 147 151 145 -3 0 -39 -30 -80 -66z"/>
<path d="M6851 3224 c0 -11 3 -14 6 -6 3 7 2 16 -1 19 -3 4 -6 -2 -5 -13z"/>
<path d="M2149 4190 c-13 -10 -19 -19 -13 -20 6 0 17 7 24 15 7 8 17 12 23 8
6 -3 7 -1 3 5 -9 15 -10 15 -37 -8z"/>
<path d="M3115 1610 c3 -5 8 -10 11 -10 2 0 4 5 4 10 0 6 -5 10 -11 10 -5 0
-7 -4 -4 -10z"/>
<path d="M800 1345 l0 -95 90 0 90 0 0 95 0 95 -90 0 -90 0 0 -95z"/>
<path d="M5768 1348 l-3 -93 -92 -3 -93 -3 0 -184 0 -185 45 0 c33 0 45 4 45
15 0 11 11 15 40 15 36 0 40 2 40 26 0 14 7 33 16 41 8 9 13 24 11 34 -3 12 2
20 15 25 20 6 20 11 14 126 -7 111 -6 119 10 116 14 -2 23 -27 42 -118 12 -63
29 -121 36 -130 7 -8 19 -38 25 -65 21 -90 31 -87 31 13 l0 92 95 0 95 0 0
185 0 185 -185 0 -184 0 -3 -92z"/>
</g>
</svg>
